<?xml version="1.0" standalone="no"?>
<!DOCTYPE svg PUBLIC "-//W3C//DTD SVG 20010904//EN"
 "http://www.w3.org/TR/2001/REC-SVG-20010904/DTD/svg10.dtd">
<svg version="1.0" xmlns="http://www.w3.org/2000/svg"
 width="464.000000pt" height="246.000000pt" viewBox="0 0 464.000000 246.000000"
 preserveAspectRatio="xMidYMid meet">

<g transform="translate(0.000000,246.000000) scale(0.100000,-0.100000)"
fill="#000000" stroke="none">
<path d="M645 2336 c-90 -29 -194 -81 -286 -142 -151 -100 -339 -320 -339
-397 l0 -34 156 -38 c146 -35 155 -39 150 -59 -7 -22 -93 -375 -144 -584 -17
-68 -32 -126 -35 -129 -3 -3 -32 2 -64 10 l-58 14 -3 -136 -3 -135 48 -71 c58
-85 208 -237 283 -287 158 -103 319 -166 478 -188 127 -18 332 -8 442 20 318
83 585 300 733 595 40 82 84 211 74 222 -4 3 -57 -6 -118 -21 -61 -16 -113
-26 -116 -23 -6 7 -185 729 -181 733 2 1 77 21 167 43 90 23 166 42 168 44 6
6 -71 127 -127 199 -122 158 -339 307 -534 367 -62 19 -91 21 -345 21 -259 -1
-280 -2 -346 -24z m576 -692 c238 -92 286 -107 351 -101 l56 5 32 -137 c18
-75 45 -185 60 -244 22 -85 25 -109 15 -113 -25 -10 -88 1 -95 16 -4 8 -13 27
-20 42 -8 16 -96 91 -213 180 -290 222 -300 228 -359 228 -58 0 -69 -5 -168
-79 -93 -68 -138 -85 -189 -71 -50 13 -76 33 -68 53 7 19 308 244 351 263 54
23 98 16 247 -42z m-406 18 c0 -7 -54 -55 -119 -105 -78 -60 -123 -101 -128
-119 -29 -88 124 -160 237 -112 21 9 73 42 114 73 83 64 110 76 147 67 13 -4
132 -87 264 -186 167 -126 241 -187 246 -204 12 -50 -41 -95 -88 -77 -13 5
-65 41 -117 80 -100 75 -131 87 -131 49 0 -17 21 -38 76 -78 95 -69 127 -105
118 -134 -8 -29 -41 -56 -69 -56 -12 0 -72 38 -136 85 -63 47 -121 84 -129 83
-35 -7 -20 -38 41 -85 91 -70 99 -79 99 -117 0 -38 -28 -66 -66 -66 -11 0 -65
34 -119 75 -96 74 -118 85 -130 65 -11 -18 5 -45 45 -73 41 -29 50 -56 30 -87
-12 -19 -127 -16 -220 6 -145 35 -330 151 -409 258 -32 42 -38 46 -78 46 -38
0 -43 3 -43 23 0 22 106 457 112 461 2 1 82 28 178 60 96 33 189 65 205 72 36
16 70 14 70 -4z"/>
<path d="M2150 1794 l0 -356 123 4 c167 5 193 25 212 166 12 90 -2 161 -39
198 -32 32 -32 32 -10 43 31 14 47 71 42 152 -7 122 -45 148 -220 148 l-108 1
0 -356z m188 234 c15 -15 16 -102 2 -129 -6 -11 -21 -19 -35 -19 -24 0 -25 2
-25 80 0 77 1 80 23 80 13 0 28 -5 35 -12z m12 -284 c6 -14 10 -51 10 -82 0
-67 -19 -102 -56 -102 -24 0 -24 0 -24 105 l0 105 30 0 c24 0 33 -6 40 -26z"/>
<path d="M2730 1866 c0 -246 -2 -285 -16 -297 -11 -9 -20 -10 -32 -2 -14 8
-18 30 -20 107 l-3 96 -64 0 -65 0 0 -107 c0 -162 34 -213 149 -221 77 -6 132
23 161 83 19 38 20 62 20 333 l0 292 -65 0 -65 0 0 -284z"/>
<path d="M2930 1795 l0 -355 65 0 65 0 0 160 0 160 65 0 65 0 0 70 0 70 -65 0
-65 0 0 55 0 55 70 0 70 0 0 70 0 70 -135 0 -135 0 0 -355z"/>
<path d="M2130 1290 l0 -70 40 0 40 0 0 -285 0 -285 65 0 65 0 0 285 0 285 45
0 45 0 0 70 0 70 -150 0 -150 0 0 -70z"/>
<path d="M2480 1005 l0 -355 140 0 140 0 0 70 0 70 -75 0 -75 0 0 80 0 80 65
0 65 0 0 65 0 65 -65 0 -65 0 0 70 0 70 70 0 70 0 0 70 0 70 -135 0 -135 0 0
-355z"/>
<path d="M2890 1342 c-19 -9 -43 -33 -55 -52 -18 -32 -20 -55 -23 -275 -3
-234 -2 -241 20 -284 29 -57 74 -81 148 -81 119 0 162 53 168 202 l4 98 -70 0
-71 0 -3 -81 c-2 -63 -7 -84 -20 -92 -12 -8 -21 -7 -32 2 -14 12 -16 44 -16
226 0 227 4 245 50 230 18 -6 20 -15 20 -81 l0 -74 71 0 72 0 -5 89 c-6 103
-23 139 -78 170 -47 26 -131 28 -180 3z"/>
<path d="M3200 1005 l0 -355 70 0 70 0 0 160 0 160 35 0 35 0 0 -160 0 -160
65 0 65 0 0 355 0 355 -65 0 -65 0 0 -130 0 -130 -35 0 -35 0 0 130 0 130 -70
0 -70 0 0 -355z"/>
<path d="M42 1108 c-15 -15 -15 -51 0 -66 18 -18 56 -14 68 7 14 27 13 37 -6
55 -18 19 -45 21 -62 4z"/>
<path d="M1876 1104 c-21 -20 -20 -37 2 -57 33 -30 72 -15 72 28 0 42 -44 59
-74 29z"/>
<path d="M3623 935 c-26 -25 -31 -58 -8 -49 13 5 15 -10 15 -100 l0 -106 25 0
25 0 0 140 c0 127 -2 140 -17 139 -10 -1 -28 -11 -40 -24z"/>
<path d="M3746 939 c-25 -20 -26 -24 -26 -119 0 -106 7 -124 57 -136 17 -5 33
0 51 13 26 19 27 25 30 117 3 91 1 98 -22 121 -31 30 -55 32 -90 4z m59 -120
c0 -68 -3 -84 -15 -84 -12 0 -16 16 -18 74 -3 82 2 105 21 98 8 -2 12 -29 12
-88z"/>
<path d="M4005 948 c-2 -7 -6 -49 -10 -93 -3 -44 -8 -101 -12 -127 -5 -47 -5
-48 21 -48 21 0 26 5 26 25 0 18 5 25 20 25 15 0 20 -7 20 -25 0 -20 5 -25 26
-25 25 0 26 2 21 43 -4 23 -9 78 -12 122 -9 114 -10 115 -56 115 -23 0 -41 -5
-44 -12z m55 -114 c5 -58 4 -64 -13 -64 -13 0 -17 5 -13 16 3 9 6 41 6 71 0
74 13 59 20 -23z"/>
<path d="M4160 820 l0 -140 25 0 c24 0 25 3 26 68 l2 67 15 -67 c13 -60 18
-68 39 -68 l23 0 0 140 0 140 -25 0 c-24 0 -25 -3 -26 -62 -1 -62 -1 -62 -11
-23 -5 22 -11 50 -14 63 -3 16 -11 22 -29 22 l-25 0 0 -140z"/>
<path d="M4350 940 c-17 -17 -20 -33 -20 -120 0 -88 2 -102 21 -121 16 -16 28
-20 53 -15 48 10 56 29 56 138 0 85 -3 101 -20 118 -11 11 -31 20 -45 20 -14
0 -34 -9 -45 -20z m60 -120 c0 -73 -3 -90 -15 -90 -12 0 -15 17 -15 90 0 73 3
90 15 90 12 0 15 -17 15 -90z"/>
<path d="M4520 940 c-32 -32 -26 -74 20 -124 41 -44 53 -86 25 -86 -9 0 -15 9
-15 25 0 20 -5 25 -25 25 -21 0 -25 -5 -25 -30 0 -83 111 -96 126 -15 8 44 -8
85 -47 119 -31 28 -38 56 -14 56 8 0 15 -7 15 -15 0 -9 9 -15 25 -15 14 0 25
4 25 10 0 23 -24 59 -44 64 -34 9 -45 7 -66 -14z"/>
</g>
</svg>
